<?xml version="1.0" encoding="UTF-8"?>
<svg xmlns="http://www.w3.org/2000/svg" version="1.1" viewBox="0 0 300 50">
  <!-- Generator: Adobe Illustrator 28.6.0, SVG Export Plug-In . SVG Version: 1.2.0 Build 709)  -->
  <g>
    <g id="Ebene_1">
      <g>
        <path d="M21.69,21.48c1.33-.57,2.39-1.37,3.16-2.45.93-1.31,1.4-2.91,1.4-4.8,0-2.77-.92-4.95-2.77-6.55-1.85-1.6-4.4-2.4-7.66-2.4H2.36v32.31h13.45c2.33,0,4.3-.34,5.92-1.03,1.62-.68,2.84-1.7,3.67-3.04.83-1.34,1.24-2.95,1.24-4.85,0-2.01-.5-3.65-1.51-4.93-.83-1.06-1.99-1.81-3.44-2.27ZM15.07,11.48c1.28,0,2.26.29,2.93.87.67.58,1,1.44,1,2.58s-.33,2.05-1,2.66c-.67.61-1.65.92-2.93.92h-5.63v-7.03h5.63ZM18.38,30.49c-.67.6-1.66.9-2.97.9h-5.98v-6.94h5.98c1.28,0,2.26.28,2.95.85s1.03,1.41,1.03,2.51c0,1.19-.33,2.09-1,2.69Z"/>
        <path d="M46.77,16.54c-1.81-.96-3.87-1.44-6.2-1.44s-4.4.48-6.22,1.44c-1.82.96-3.25,2.31-4.28,4.04-1.03,1.73-1.55,3.75-1.55,6.05s.52,4.31,1.55,6.03c1.03,1.72,2.46,3.06,4.28,4.02,1.82.96,3.89,1.44,6.22,1.44s4.4-.48,6.2-1.44c1.8-.96,3.22-2.3,4.26-4.02,1.03-1.72,1.55-3.73,1.55-6.03s-.52-4.32-1.55-6.05c-1.03-1.73-2.45-3.08-4.26-4.04ZM45.15,29.49c-.44.83-1.05,1.47-1.83,1.92-.79.45-1.7.68-2.75.68s-1.97-.22-2.75-.68c-.79-.45-1.41-1.09-1.86-1.92-.45-.83-.68-1.8-.68-2.9s.23-2.07.68-2.88c.45-.81,1.07-1.45,1.86-1.9.79-.45,1.7-.68,2.75-.68s1.96.23,2.75.68c.79.45,1.4,1.08,1.83,1.9.44.82.66,1.78.66,2.88s-.22,2.07-.66,2.9Z"/>
        <path d="M72.66,16.54c-1.81-.96-3.87-1.44-6.2-1.44s-4.4.48-6.22,1.44c-1.82.96-3.25,2.31-4.28,4.04-1.03,1.73-1.55,3.75-1.55,6.05s.52,4.31,1.55,6.03c1.03,1.72,2.46,3.06,4.28,4.02,1.82.96,3.89,1.44,6.22,1.44s4.4-.48,6.2-1.44c1.8-.96,3.22-2.3,4.26-4.02,1.03-1.72,1.55-3.73,1.55-6.03s-.52-4.32-1.55-6.05c-1.03-1.73-2.45-3.08-4.26-4.04ZM71.05,29.49c-.44.83-1.05,1.47-1.83,1.92-.79.45-1.7.68-2.75.68s-1.97-.22-2.75-.68c-.79-.45-1.41-1.09-1.86-1.92-.45-.83-.68-1.8-.68-2.9s.23-2.07.68-2.88c.45-.81,1.07-1.45,1.86-1.9.79-.45,1.7-.68,2.75-.68s1.96.23,2.75.68c.79.45,1.4,1.08,1.83,1.9.44.82.66,1.78.66,2.88s-.22,2.07-.66,2.9Z"/>
        <polygon points="90.09 8.99 83.36 8.99 83.36 15.76 79.21 15.76 79.21 21.35 83.36 21.35 83.36 37.59 90.09 37.59 90.09 21.35 94.24 21.35 94.24 15.76 90.09 15.76 90.09 8.99"/>
        <path d="M108.3,24.71l-4.06-.87c-1.57-.35-2.36-.99-2.36-1.92,0-.58.23-1.06.68-1.42.45-.36,1.05-.55,1.81-.55.81,0,1.44.23,1.88.68.44.45.65,1.06.65,1.81h6.38c0-1.48-.36-2.78-1.09-3.89-.73-1.11-1.74-1.96-3.04-2.58-1.3-.61-2.79-.92-4.48-.92s-3.3.28-4.67.85c-1.37.57-2.45,1.38-3.25,2.45-.8,1.06-1.2,2.35-1.2,3.86,0,1.92.49,3.37,1.48,4.34.99.98,2.49,1.68,4.5,2.12l4.02.87c.81.17,1.35.42,1.59.74.25.32.37.64.37.96,0,.55-.25,1-.74,1.35-.5.35-1.27.52-2.31.52s-1.81-.22-2.36-.66c-.55-.44-.86-1.03-.92-1.79h-6.38c0,2.21.84,4.01,2.53,5.39,1.69,1.38,3.97,2.07,6.86,2.07,1.89,0,3.57-.3,5.02-.9,1.46-.6,2.59-1.46,3.41-2.6.81-1.14,1.22-2.47,1.22-4.02,0-1.75-.47-3.08-1.42-4-.95-.92-2.32-1.56-4.13-1.94Z"/>
        <polygon points="125.28 8.99 118.56 8.99 118.56 15.76 114.41 15.76 114.41 21.35 118.56 21.35 118.56 37.59 125.28 37.59 125.28 21.35 129.43 21.35 129.43 15.76 125.28 15.76 125.28 8.99"/>
        <path d="M144.02,15.45c-1.78,0-3.18.47-4.21,1.42-.68.62-1.18,1.36-1.53,2.19l-.37-3.26h-6.33v21.79h6.73v-9.48c0-2.15.55-3.7,1.64-4.63,1.09-.93,2.6-1.4,4.52-1.4h2.14v-6.33c-.47-.12-.91-.2-1.33-.24-.42-.04-.84-.07-1.24-.07Z"/>
        <path d="M163.56,16.19c-1.47-.76-3.27-1.14-5.39-1.14s-3.88.33-5.44,1c-1.56.67-2.76,1.62-3.6,2.84-.84,1.22-1.27,2.66-1.27,4.32h5.59c0-.99.37-1.75,1.11-2.27s1.83-.79,3.25-.79c.81,0,1.49.12,2.03.37.54.25.95.61,1.24,1.09.29.48.44,1.08.44,1.81v.35l-6.11.48c-2.62.2-4.62.9-6,2.1-1.38,1.19-2.07,2.79-2.07,4.8,0,2.13.68,3.82,2.03,5.09,1.35,1.27,3.18,1.9,5.48,1.9,1.63,0,3.09-.33,4.39-.98,1.29-.66,2.12-1.48,2.47-2.47l.44,2.88h5.94v-12.75c0-2.1-.39-3.87-1.16-5.33-.77-1.46-1.89-2.56-3.36-3.32ZM161.57,29.42c0,1.25-.41,2.19-1.22,2.82-.82.63-1.86.94-3.14.94-1.02,0-1.78-.19-2.27-.57-.5-.38-.74-.96-.74-1.75,0-.7.3-1.23.9-1.59.6-.36,1.62-.6,3.08-.72l3.41-.31v1.18Z"/>
        <path d="M191.14,16.41c-1.54-.9-3.33-1.35-5.37-1.35-1.54,0-2.96.31-4.24.92s-2.23,1.43-2.84,2.45l-.35-2.66h-6.33v32.31h6.73v-12.66c.64.82,1.6,1.48,2.88,2.01,1.28.52,2.68.79,4.19.79,2.18,0,4.04-.51,5.57-1.53s2.69-2.42,3.49-4.21c.8-1.79,1.2-3.84,1.2-6.14s-.44-4.37-1.31-6.05c-.87-1.67-2.08-2.96-3.62-3.86ZM188.67,29.51c-.42.82-1.02,1.46-1.79,1.92s-1.7.7-2.77.7-1.97-.22-2.77-.68c-.8-.45-1.43-1.09-1.88-1.92-.45-.83-.68-1.78-.68-2.86s.23-2.07.68-2.88c.45-.81,1.08-1.45,1.88-1.9.8-.45,1.73-.68,2.77-.68s2,.23,2.77.7c.77.47,1.37,1.11,1.79,1.92.42.82.63,1.76.63,2.84s-.21,2.02-.63,2.84Z"/>
        <path d="M218.8,6.63c-1.65-.9-3.57-1.35-5.79-1.35h-13.1v32.31h7.07v-10.74h6.03c2.21,0,4.14-.45,5.79-1.35,1.64-.9,2.93-2.16,3.84-3.78s1.38-3.5,1.38-5.65-.46-4.04-1.38-5.66-2.2-2.87-3.84-3.78ZM215.28,19.45c-.84.74-2.12,1.11-3.84,1.11h-4.45v-9h4.45c1.72,0,3,.37,3.84,1.11.84.74,1.27,1.87,1.27,3.38s-.42,2.64-1.27,3.38Z"/>
        <path d="M241.2,16.19c-1.47-.76-3.27-1.14-5.39-1.14s-3.88.33-5.44,1c-1.56.67-2.76,1.62-3.6,2.84-.84,1.22-1.27,2.66-1.27,4.32h5.59c0-.99.37-1.75,1.11-2.27s1.83-.79,3.25-.79c.81,0,1.49.12,2.03.37.54.25.95.61,1.25,1.09.29.48.44,1.08.44,1.81v.35l-6.11.48c-2.62.2-4.62.9-6,2.1s-2.07,2.79-2.07,4.8c0,2.13.68,3.82,2.03,5.09,1.35,1.27,3.18,1.9,5.48,1.9,1.63,0,3.09-.33,4.39-.98,1.3-.66,2.12-1.48,2.47-2.47l.44,2.88h5.94v-12.75c0-2.1-.39-3.87-1.16-5.33-.77-1.46-1.89-2.56-3.36-3.32ZM239.21,29.42c0,1.25-.41,2.19-1.22,2.82-.82.63-1.86.94-3.14.94-1.02,0-1.78-.19-2.27-.57-.5-.38-.74-.96-.74-1.75,0-.7.3-1.23.89-1.59.6-.36,1.62-.6,3.08-.72l3.41-.31v1.18Z"/>
        <path d="M265.57,17.95c-.49-.75-1.19-1.38-2.09-1.89-1.24-.7-2.72-1.05-4.43-1.05-2.04,0-3.85.48-5.44,1.44-1.59.96-2.82,2.29-3.71,3.97-.89,1.69-1.33,3.64-1.33,5.85s.44,4.11,1.31,5.76c.87,1.66,2.09,2.96,3.65,3.89s3.36,1.4,5.39,1.4c1.75,0,3.29-.35,4.63-1.05.83-.43,1.47-.96,1.96-1.56v2.87c0,1.54-.47,2.77-1.42,3.67-.95.9-2.24,1.35-3.87,1.35-1.48,0-2.66-.34-3.54-1.03s-1.34-1.64-1.4-2.86h-6.81c.32,3.09,1.53,5.52,3.62,7.31,2.1,1.79,4.82,2.69,8.17,2.69,2.5,0,4.64-.5,6.42-1.51,1.78-1,3.14-2.45,4.11-4.32.96-1.88,1.44-4.11,1.44-6.7V15.76h-6.33l-.33,2.2ZM264.87,28.92c-.42.8-1.02,1.43-1.79,1.88-.77.45-1.67.68-2.69.68s-1.86-.23-2.62-.7c-.76-.47-1.35-1.1-1.79-1.9s-.66-1.72-.66-2.77.21-1.96.63-2.75,1.01-1.4,1.77-1.83c.76-.44,1.63-.66,2.62-.66,1.05,0,1.96.22,2.73.66.77.44,1.37,1.04,1.79,1.81.42.77.63,1.7.63,2.77s-.21,2.02-.63,2.82Z"/>
        <path d="M291.48,30.21c-.23.79-.77,1.4-1.62,1.83s-1.91.66-3.19.66c-1.75,0-3.04-.49-3.86-1.46-.57-.67-.93-1.61-1.11-2.79l15.85-.07v-1.7c0-2.39-.45-4.45-1.35-6.18-.9-1.73-2.18-3.07-3.84-4.02-1.66-.95-3.64-1.42-5.94-1.42s-4.12.5-5.81,1.48c-1.69.99-3.01,2.35-3.95,4.08-.95,1.73-1.42,3.73-1.42,6s.49,4.23,1.46,5.96,2.31,3.09,4.02,4.08,3.65,1.48,5.83,1.48c3,0,5.5-.72,7.51-2.16,2.01-1.44,3.2-3.37,3.58-5.79h-6.16ZM283.69,21.17c.71-.44,1.64-.65,2.77-.65,1.37,0,2.45.34,3.23,1.03.79.68,1.18,1.61,1.18,2.77h-9.08c.08-.4.18-.78.3-1.11.35-.92.88-1.59,1.59-2.03Z"/>
      </g>
    </g>
  </g>
</svg>